<svg width="194" height="24" viewBox="0 0 194 24" fill="none" xmlns="http://www.w3.org/2000/svg">
<g clip-path="url(#clip0_2562_5148)">
<path d="M33.818 24.0001C32.2215 24.0001 30.7311 23.6881 29.356 23.0593C27.9763 22.4353 26.7674 21.5665 25.7292 20.4625C24.691 19.3585 23.8788 18.0865 23.3021 16.6369C22.7207 15.1921 22.4346 13.6369 22.4346 11.9761C22.4346 10.3153 22.7253 8.76008 23.3021 7.31528C23.8835 5.87048 24.691 4.59368 25.7292 3.48968C26.7674 2.38568 27.9763 1.52648 29.356 0.912078C30.7357 0.297678 32.2215 -0.00952148 33.818 -0.00952148C35.4146 -0.00952148 36.905 0.297678 38.28 0.912078C39.6597 1.52648 40.8686 2.38568 41.9069 3.48968C42.9451 4.59368 43.7572 5.87048 44.334 7.31528C44.9154 8.76008 45.2015 10.3153 45.2015 11.9761C45.2015 13.6369 44.9108 15.1921 44.334 16.6369C43.7526 18.0817 42.9451 19.3585 41.9069 20.4625C40.8686 21.5665 39.6597 22.4305 38.28 23.0593C36.9004 23.6833 35.4146 24.0001 33.818 24.0001ZM33.818 19.9393C35.2623 19.9393 36.5081 19.5649 37.5602 18.8113C38.6123 18.0625 39.4244 17.0785 40.0058 15.8593C40.5872 14.6401 40.8733 13.3153 40.8733 11.8801C40.8733 10.4449 40.5872 9.09128 40.0196 7.88648C39.4521 6.68168 38.6353 5.71208 37.574 4.98248C36.5128 4.25288 35.2623 3.88808 33.818 3.88808C32.3737 3.88808 31.1233 4.25288 30.062 4.98248C29.0007 5.71208 28.184 6.67688 27.6164 7.88648C27.0489 9.09128 26.7628 10.4257 26.7628 11.8801C26.7628 13.3345 27.0489 14.6401 27.6164 15.8593C28.184 17.0785 29.0007 18.0625 30.062 18.8113C31.1233 19.5649 32.3737 19.9393 33.818 19.9393Z" fill="#18191C"/>
<path d="M59.7365 24.0001C58.1399 24.0001 56.6495 23.6881 55.2745 23.0593C53.8948 22.4353 52.6858 21.5665 51.6476 20.4625C50.6094 19.3585 49.7973 18.0865 49.2205 16.6369C48.6391 15.1921 48.353 13.6369 48.353 11.9761C48.353 10.3153 48.6437 8.76008 49.2205 7.31528C49.8019 5.87048 50.6094 4.59368 51.6476 3.48968C52.6858 2.38568 53.8948 1.52648 55.2745 0.912078C56.6541 0.297678 58.1399 -0.00952148 59.7365 -0.00952148C61.333 -0.00952148 62.8234 0.297678 64.1985 0.912078C65.5782 1.52648 66.7871 2.38568 67.8253 3.48968C68.8635 4.59368 69.6756 5.87048 70.2524 7.31528C70.8338 8.76008 71.1199 10.3153 71.1199 11.9761C71.1199 13.6369 70.8292 15.1921 70.2524 16.6369C69.671 18.0817 68.8635 19.3585 67.8253 20.4625C66.7871 21.5665 65.5782 22.4305 64.1985 23.0593C62.8188 23.6833 61.333 24.0001 59.7365 24.0001ZM59.7365 19.9393C61.1807 19.9393 62.4266 19.5649 63.4787 18.8113C64.5307 18.0625 65.3428 17.0785 65.9242 15.8593C66.5056 14.6401 66.7917 13.3153 66.7917 11.8801C66.7917 10.4449 66.5056 9.09128 65.9381 7.88648C65.3705 6.68168 64.5538 5.71208 63.4925 4.98248C62.4312 4.25288 61.1807 3.88808 59.7365 3.88808C58.2922 3.88808 57.0417 4.25288 55.9804 4.98248C54.9192 5.71208 54.1024 6.67688 53.5349 7.88648C52.9673 9.09128 52.6812 10.4257 52.6812 11.8801C52.6812 13.3345 52.9673 14.6401 53.5349 15.8593C54.1024 17.0785 54.9192 18.0625 55.9804 18.8113C57.0417 19.5649 58.2922 19.9393 59.7365 19.9393Z" fill="#18191C"/>
<path d="M94.9436 19.7327L97.8321 16.9679C98.2059 17.3759 98.6396 17.8223 99.1426 18.2975C99.6455 18.7775 100.245 19.1855 100.947 19.5263C101.648 19.8671 102.456 20.0399 103.374 20.0399C104.666 20.0399 105.621 19.7279 106.244 19.0991C106.867 18.4751 107.181 17.7407 107.181 16.8959C107.181 15.9167 106.798 15.1535 106.032 14.6063C105.266 14.0591 103.9 13.5935 101.93 13.2047C100.596 12.9311 99.4933 12.4655 98.6304 11.8031C97.7675 11.1455 97.1215 10.3535 96.6924 9.43192C96.2679 8.51032 96.051 7.55032 96.051 6.54712C96.051 5.38552 96.3279 4.31032 96.8862 3.32152C97.4445 2.33272 98.2843 1.53112 99.4148 0.916717C100.541 0.302317 101.957 -0.00488281 103.665 -0.00488281C104.823 -0.00488281 105.819 0.124717 106.65 0.388717C107.481 0.652717 108.177 0.969517 108.736 1.34392C109.294 1.71832 109.723 2.08312 110.032 2.43832C110.337 2.79352 110.558 3.04792 110.688 3.20632L107.965 5.87032C107.836 5.73592 107.577 5.49592 107.195 5.15512C106.812 4.81432 106.318 4.50232 105.718 4.21432C105.118 3.93112 104.389 3.78712 103.535 3.78712C102.396 3.78712 101.56 4.07032 101.025 4.64152C100.49 5.21272 100.222 5.77912 100.222 6.35032C100.222 7.14712 100.536 7.79992 101.159 8.31352C101.782 8.82712 102.991 9.27352 104.786 9.66232C105.921 9.91192 106.991 10.3151 107.984 10.8719C108.98 11.4287 109.783 12.2015 110.397 13.1951C111.011 14.1839 111.315 15.4559 111.315 17.0015C111.315 18.3215 110.974 19.5119 110.3 20.5679C109.622 21.6239 108.685 22.4639 107.494 23.0783C106.304 23.6927 104.952 23.9999 103.443 23.9999C101.934 23.9999 100.725 23.7743 99.6178 23.3183C98.515 22.8623 97.5737 22.3007 96.7939 21.6287C96.0187 20.9567 95.4004 20.3279 94.939 19.7327H94.9436Z" fill="#18191C"/>
<path d="M131.789 16.6272L134.677 19.224C134.239 19.9056 133.584 20.6112 132.707 21.3408C131.83 22.0704 130.792 22.6848 129.588 23.184C128.383 23.6832 127.082 23.9328 125.684 23.9328C123.52 23.9328 121.6 23.4192 119.925 22.3968C118.25 21.3744 116.94 19.968 115.989 18.1824C115.039 16.3968 114.563 14.376 114.563 12.1248C114.563 10.464 114.836 8.90402 115.385 7.44962C115.929 5.99522 116.705 4.71362 117.697 3.60962C118.693 2.50562 119.879 1.64162 121.259 1.01282C122.638 0.388822 124.157 0.0720215 125.822 0.0720215C127.986 0.0720215 129.786 0.513622 131.221 1.40162C132.656 2.28962 133.81 3.36962 134.682 4.64642L131.761 7.34402C131.06 6.29762 130.247 5.45762 129.315 4.81922C128.383 4.18082 127.22 3.86402 125.822 3.86402C124.424 3.86402 123.169 4.23842 122.131 4.99202C121.093 5.74082 120.294 6.73922 119.736 7.97762C119.178 9.21602 118.901 10.5648 118.901 12.024C118.901 13.4832 119.178 14.8032 119.736 15.984C120.294 17.1696 121.074 18.1104 122.085 18.816C123.091 19.5216 124.272 19.872 125.629 19.872C126.897 19.872 127.922 19.68 128.697 19.2912C129.472 18.9024 130.095 18.456 130.566 17.9424C131.036 17.4288 131.447 16.992 131.798 16.6272H131.789Z" fill="#18191C"/>
<path d="M136.749 23.3857L145.05 0.614502H149.318L157.619 23.3857H153.024L151.118 17.6161H142.978L141.073 23.3857H136.74H136.749ZM144.132 14.0641H149.941L147.053 5.2225L144.132 14.0641Z" fill="#18191C"/>
<path d="M161.551 23.3855V0.614258H168.573C170.105 0.614258 171.365 0.854258 172.348 1.32946C173.331 1.80946 174.101 2.41426 174.66 3.15826C175.218 3.89746 175.606 4.67026 175.822 5.48146C176.039 6.28786 176.15 7.03666 176.15 7.71826C176.15 8.99506 175.938 10.0847 175.509 10.9967C175.084 11.9087 174.507 12.6527 173.788 13.2335C173.068 13.8143 172.274 14.2415 171.407 14.5151C170.544 14.7887 169.686 14.9231 168.832 14.9231H165.519V23.3903H161.546L161.551 23.3855ZM165.519 11.2991H168.504C169.533 11.2991 170.364 10.9727 171.001 10.3247C171.633 9.67666 171.951 8.85106 171.951 7.84786C171.951 6.77746 171.623 5.90866 170.968 5.23666C170.313 4.56466 169.492 4.22866 168.509 4.22866H165.523V11.2943L165.519 11.2991Z" fill="#18191C"/>
<path d="M179.999 23.3857V0.614502H193.339V4.4017H184.572V9.7633H191.604V13.5889H184.133V19.5313H193.8V23.3905H179.999V23.3857Z" fill="#18191C"/>
<path d="M17.8896 11.688C17.4697 11.2944 17.0083 10.9824 16.5284 10.7424C18.5679 8.27521 18.3695 4.54081 16.0208 2.37121C14.6965 1.15201 13.1415 0.556815 11.6511 0.600015H11.6603L0 0.595215V18.3696L10.9589 5.70241C11.5542 5.01121 12.5785 4.95841 13.2384 5.57761C13.9028 6.19681 13.9536 7.26241 13.3584 7.94881L6.47384 15.9024L0 23.3856H5.5879L12.8277 15.0192C13.423 14.328 14.4473 14.2752 15.1072 14.8944C15.7716 15.5136 15.8224 16.5792 15.2271 17.2656L9.93456 23.3808H15.5225L18.3141 20.1552C20.4459 17.6928 20.2567 13.9008 17.885 11.6832L17.8896 11.688Z" fill="#0E1EAB"/>
<path d="M75.342 23.3857V0.614502H79.4764V9.9697L87.5745 0.614502H92.2626L84.1968 9.9361L93.1485 23.3857H88.1651L81.5067 13.0417L79.4718 15.3985V23.3857H75.3374H75.342Z" fill="#18191C"/>
</g>
<defs>
<clipPath id="clip0_2562_5148">
<rect width="193.8" height="24" fill="white"/>
</clipPath>
</defs>
</svg>
