<svg width="146" height="52" viewBox="0 0 146 52" fill="none" xmlns="http://www.w3.org/2000/svg">
<g filter="url(#filter0_d_2562_5143)">
<rect x="2" y="1" width="142" height="48" rx="24" fill="#F9FAFA"/>
<rect x="2.75" y="1.75" width="140.5" height="46.5" rx="23.25" stroke="#18191C" stroke-width="1.5"/>
<path d="M54.2727 22.2727C54.2045 21.697 53.928 21.25 53.4432 20.9318C52.9583 20.6136 52.3636 20.4545 51.6591 20.4545C51.1439 20.4545 50.6932 20.5379 50.3068 20.7045C49.9242 20.8712 49.625 21.1004 49.4091 21.392C49.197 21.6837 49.0909 22.0152 49.0909 22.3864C49.0909 22.697 49.1648 22.964 49.3125 23.1875C49.464 23.4072 49.6572 23.5909 49.892 23.7386C50.1269 23.8826 50.3731 24.0019 50.6307 24.0966C50.8883 24.1875 51.125 24.2614 51.3409 24.3182L52.5227 24.6364C52.8258 24.7159 53.1629 24.8258 53.5341 24.9659C53.9091 25.1061 54.267 25.2973 54.608 25.5398C54.9527 25.7784 55.2367 26.0852 55.4602 26.4602C55.6837 26.8352 55.7955 27.2955 55.7955 27.8409C55.7955 28.4697 55.6307 29.0379 55.3011 29.5455C54.9754 30.053 54.4981 30.4564 53.8693 30.7557C53.2443 31.0549 52.4848 31.2045 51.5909 31.2045C50.7576 31.2045 50.036 31.0701 49.4261 30.8011C48.8201 30.5322 48.3428 30.1572 47.9943 29.6761C47.6496 29.1951 47.4545 28.6364 47.4091 28H48.8636C48.9015 28.4394 49.0492 28.803 49.3068 29.0909C49.5682 29.375 49.8977 29.5871 50.2955 29.7273C50.697 29.8636 51.1288 29.9318 51.5909 29.9318C52.1288 29.9318 52.6117 29.8447 53.0398 29.6705C53.4678 29.4924 53.8068 29.2462 54.0568 28.9318C54.3068 28.6136 54.4318 28.2424 54.4318 27.8182C54.4318 27.4318 54.3239 27.1174 54.108 26.875C53.892 26.6326 53.608 26.4356 53.2557 26.2841C52.9034 26.1326 52.5227 26 52.1136 25.8864L50.6818 25.4773C49.7727 25.2159 49.053 24.8428 48.5227 24.358C47.9924 23.8731 47.7273 23.2386 47.7273 22.4545C47.7273 21.803 47.9034 21.2348 48.2557 20.75C48.6117 20.2614 49.089 19.8826 49.6875 19.6136C50.2898 19.3409 50.9621 19.2045 51.7045 19.2045C52.4545 19.2045 53.1212 19.339 53.7045 19.608C54.2879 19.8731 54.75 20.2367 55.0909 20.6989C55.4356 21.161 55.6174 21.6856 55.6364 22.2727H54.2727ZM61.5895 31.1818C60.7486 31.1818 60.0232 30.9962 59.4134 30.625C58.8073 30.25 58.3395 29.7273 58.0099 29.0568C57.6842 28.3826 57.5213 27.5985 57.5213 26.7045C57.5213 25.8106 57.6842 25.0227 58.0099 24.3409C58.3395 23.6553 58.7978 23.1212 59.3849 22.7386C59.9759 22.3523 60.6652 22.1591 61.4531 22.1591C61.9077 22.1591 62.3565 22.2348 62.7997 22.3864C63.2429 22.5379 63.6463 22.7841 64.0099 23.125C64.3736 23.4621 64.6634 23.9091 64.8793 24.4659C65.0952 25.0227 65.2031 25.7083 65.2031 26.5227V27.0909H58.4759V25.9318H63.8395C63.8395 25.4394 63.741 25 63.544 24.6136C63.3509 24.2273 63.0743 23.9223 62.7145 23.6989C62.3584 23.4754 61.938 23.3636 61.4531 23.3636C60.919 23.3636 60.4569 23.4962 60.0668 23.7614C59.6804 24.0227 59.383 24.3636 59.1747 24.7841C58.9664 25.2045 58.8622 25.6553 58.8622 26.1364V26.9091C58.8622 27.5682 58.9759 28.1269 59.2031 28.5852C59.4342 29.0398 59.7543 29.3864 60.1634 29.625C60.5724 29.8598 61.0478 29.9773 61.5895 29.9773C61.9418 29.9773 62.2599 29.928 62.544 29.8295C62.8319 29.7273 63.08 29.5758 63.2884 29.375C63.4967 29.1705 63.6577 28.9167 63.7713 28.6136L65.0668 28.9773C64.9304 29.4167 64.7012 29.803 64.3793 30.1364C64.0573 30.4659 63.6596 30.7235 63.1861 30.9091C62.7126 31.0909 62.1804 31.1818 61.5895 31.1818ZM69.8111 31.2045C69.258 31.2045 68.7562 31.1004 68.3054 30.892C67.8546 30.6799 67.4967 30.375 67.2315 29.9773C66.9664 29.5758 66.8338 29.0909 66.8338 28.5227C66.8338 28.0227 66.9323 27.6174 67.1293 27.3068C67.3262 26.9924 67.5895 26.7462 67.919 26.5682C68.2486 26.3902 68.6122 26.2576 69.0099 26.1705C69.4115 26.0795 69.8149 26.0076 70.2202 25.9545C70.7505 25.8864 71.1804 25.8352 71.5099 25.8011C71.8433 25.7633 72.0857 25.7008 72.2372 25.6136C72.3925 25.5265 72.4702 25.375 72.4702 25.1591V25.1136C72.4702 24.553 72.3168 24.1174 72.0099 23.8068C71.7069 23.4962 71.2467 23.3409 70.6293 23.3409C69.9891 23.3409 69.4872 23.4811 69.1236 23.7614C68.7599 24.0417 68.5043 24.3409 68.3565 24.6591L67.0838 24.2045C67.3111 23.6742 67.6141 23.2614 67.9929 22.9659C68.3755 22.6667 68.7921 22.4583 69.2429 22.3409C69.6974 22.2197 70.1444 22.1591 70.5838 22.1591C70.8641 22.1591 71.1861 22.1932 71.5497 22.2614C71.9171 22.3258 72.2713 22.4602 72.6122 22.6648C72.9569 22.8693 73.2429 23.178 73.4702 23.5909C73.6974 24.0038 73.8111 24.5568 73.8111 25.25V31H72.4702V29.8182H72.402C72.3111 30.0076 72.1596 30.2102 71.9474 30.4261C71.7353 30.642 71.4531 30.8258 71.1009 30.9773C70.7486 31.1288 70.3187 31.2045 69.8111 31.2045ZM70.0156 30C70.5459 30 70.9929 29.8958 71.3565 29.6875C71.724 29.4792 72.0005 29.2102 72.1861 28.8807C72.3755 28.5511 72.4702 28.2045 72.4702 27.8409V26.6136C72.4134 26.6818 72.2884 26.7443 72.0952 26.8011C71.9058 26.8542 71.6861 26.9015 71.4361 26.9432C71.1899 26.9811 70.9493 27.0152 70.7145 27.0455C70.4834 27.072 70.2959 27.0947 70.152 27.1136C69.8035 27.1591 69.4777 27.233 69.1747 27.3352C68.8755 27.4337 68.633 27.5833 68.4474 27.7841C68.2656 27.9811 68.1747 28.25 68.1747 28.5909C68.1747 29.0568 68.3471 29.4091 68.6918 29.6477C69.0402 29.8826 69.4815 30 70.0156 30ZM76.2585 31V22.2727H77.554V23.5909H77.6449C77.804 23.1591 78.0919 22.8087 78.5085 22.5398C78.9252 22.2708 79.3949 22.1364 79.9176 22.1364C80.0161 22.1364 80.1392 22.1383 80.2869 22.142C80.4347 22.1458 80.5464 22.1515 80.6222 22.1591V23.5227C80.5767 23.5114 80.4725 23.4943 80.3097 23.4716C80.1506 23.4451 79.982 23.4318 79.804 23.4318C79.3797 23.4318 79.0009 23.5208 78.6676 23.6989C78.3381 23.8731 78.0767 24.1155 77.8835 24.4261C77.6941 24.733 77.5994 25.0833 77.5994 25.4773V31H76.2585ZM85.4915 31.1818C84.6733 31.1818 83.9688 30.9886 83.3778 30.6023C82.7869 30.2159 82.3324 29.6837 82.0142 29.0057C81.696 28.3277 81.5369 27.553 81.5369 26.6818C81.5369 25.7955 81.6998 25.0133 82.0256 24.3352C82.3551 23.6534 82.8134 23.1212 83.4006 22.7386C83.9915 22.3523 84.6809 22.1591 85.4688 22.1591C86.0824 22.1591 86.6354 22.2727 87.1278 22.5C87.6203 22.7273 88.0237 23.0455 88.3381 23.4545C88.6525 23.8636 88.8475 24.3409 88.9233 24.8864H87.5824C87.4801 24.4886 87.2528 24.1364 86.9006 23.8295C86.5521 23.5189 86.0824 23.3636 85.4915 23.3636C84.9688 23.3636 84.5104 23.5 84.1165 23.7727C83.7263 24.0417 83.4214 24.4223 83.2017 24.9148C82.9858 25.4034 82.8778 25.9773 82.8778 26.6364C82.8778 27.3106 82.9839 27.8977 83.196 28.3977C83.4119 28.8977 83.715 29.286 84.1051 29.5625C84.4991 29.839 84.9612 29.9773 85.4915 29.9773C85.84 29.9773 86.1562 29.9167 86.4403 29.7955C86.7244 29.6742 86.965 29.5 87.1619 29.2727C87.3589 29.0455 87.4991 28.7727 87.5824 28.4545H88.9233C88.8475 28.9697 88.66 29.4337 88.3608 29.8466C88.0653 30.2557 87.6733 30.5814 87.1847 30.8239C86.6998 31.0625 86.1354 31.1818 85.4915 31.1818ZM92.2244 25.75V31H90.8835V19.3636H92.2244V23.6364H92.3381C92.5426 23.1856 92.8494 22.8277 93.2585 22.5625C93.6714 22.2936 94.2206 22.1591 94.9062 22.1591C95.5009 22.1591 96.0218 22.2784 96.4688 22.517C96.9157 22.7519 97.2623 23.1136 97.5085 23.6023C97.7585 24.0871 97.8835 24.7045 97.8835 25.4545V31H96.5426V25.5455C96.5426 24.8523 96.3627 24.3163 96.0028 23.9375C95.6468 23.5549 95.1525 23.3636 94.5199 23.3636C94.0805 23.3636 93.6866 23.4564 93.3381 23.642C92.9934 23.8277 92.7206 24.0985 92.5199 24.4545C92.3229 24.8106 92.2244 25.2424 92.2244 25.75Z" fill="#18191C"/>
</g>
<defs>
<filter id="filter0_d_2562_5143" x="0" y="0" width="146" height="52" filterUnits="userSpaceOnUse" color-interpolation-filters="sRGB">
<feFlood flood-opacity="0" result="BackgroundImageFix"/>
<feColorMatrix in="SourceAlpha" type="matrix" values="0 0 0 0 0 0 0 0 0 0 0 0 0 0 0 0 0 0 127 0" result="hardAlpha"/>
<feOffset dy="1"/>
<feGaussianBlur stdDeviation="1"/>
<feColorMatrix type="matrix" values="0 0 0 0 0.0627451 0 0 0 0 0.0941176 0 0 0 0 0.156863 0 0 0 0.05 0"/>
<feBlend mode="normal" in2="BackgroundImageFix" result="effect1_dropShadow_2562_5143"/>
<feBlend mode="normal" in="SourceGraphic" in2="effect1_dropShadow_2562_5143" result="shape"/>
</filter>
</defs>
</svg>
